<svg xmlns="http://www.w3.org/2000/svg" viewBox="0 0 900 560">
  <rect width="900" height="560" fill="#e5eee0"/><circle cx="450" cy="272" r="180" fill="#f7f2e5"/><g fill="none" stroke="#b28a55" stroke-width="8"><path d="M280 100l72 281h71l-30-74-17-207M620 100l-72 281h-71l30-74 17-207"/><path d="M351 170h72M477 170h72"/></g><path d="M325 205h91l-17 103h-57zM484 205h91l-17 103h-57z" fill="#d6a096" opacity=".62"/>
  <g fill="#c98d83"><circle cx="137" cy="126" r="35"/><circle cx="194" cy="93" r="25"/><circle cx="742" cy="455" r="38"/><circle cx="795" cy="488" r="26"/></g><g fill="#9caf96"><path d="M0 171c88-55 140-29 202 44C105 234 34 220 0 171Z"/><path d="M900 396c-88 55-140 29-202-44 97-19 168-5 202 44Z"/></g><text x="450" y="474" fill="#31493f" font-family="Georgia,serif" font-size="45" text-anchor="middle" letter-spacing="6">UM BRINDE AO AMOR</text>
</svg>
